<?xml version="1.0"?>
<svg xmlns="http://www.w3.org/2000/svg" xmlns:xlink="http://www.w3.org/1999/xlink" version="1.1" id="Capa_1" x="0px" y="0px" viewBox="0 0 512 512" style="enable-background:new 0 0 512 512;" xml:space="preserve" width="512" height="512"><g><g>
	<g>
		<g>
			<path d="M256,128c35.346,0,64-28.654,64-64c0-35.346-28.654-64-64-64c-35.346,0-64,28.654-64,64C192,99.346,220.654,128,256,128z      M256,32c17.673,0,32,14.327,32,32s-14.327,32-32,32c-17.673,0-32-14.327-32-32S238.327,32,256,32z" data-original="#000000" class="active-path" style="fill:#667580" data-old_color="#000000"/>
			<path d="M256,192c-35.346,0-64,28.654-64,64c0,35.346,28.654,64,64,64c35.346,0,64-28.654,64-64C320,220.654,291.346,192,256,192     z M256,288c-17.673,0-32-14.327-32-32s14.327-32,32-32c17.673,0,32,14.327,32,32S273.673,288,256,288z" data-original="#000000" class="active-path" style="fill:#667580" data-old_color="#000000"/>
			<path d="M256,384c-35.346,0-64,28.654-64,64c0,35.346,28.654,64,64,64c35.346,0,64-28.654,64-64C320,412.654,291.346,384,256,384     z M256,480c-17.673,0-32-14.327-32-32c0-17.673,14.327-32,32-32c17.673,0,32,14.327,32,32C288,465.673,273.673,480,256,480z" data-original="#000000" class="active-path" style="fill:#667580" data-old_color="#000000"/>
		</g>
	</g>
</g></g> </svg>
